<svg width="1520" height="511" viewBox="0 0 1520 511" fill="none" xmlns="http://www.w3.org/2000/svg">
<mask id="path-1-inside-1_49_2758" fill="white">
<path fill-rule="evenodd" clip-rule="evenodd" d="M1520 21C1520 9.40202 1510.6 0 1499 0H21C9.40202 0 0 9.40202 0 21V356C0 367.598 9.40202 377 21 377H771C782.598 377 792 386.402 792 398V490C792 501.598 801.402 511 813 511H1499C1510.6 511 1520 501.598 1520 490V21Z"/>
</mask>
<path d="M21 4H1499V-4H21V4ZM4 356V21H-4V356H4ZM21 381H771V373H21V381ZM788 398V490H796V398H788ZM1499 507H813V515H1499V507ZM1516 21V490H1524V21H1516ZM1499 515C1512.81 515 1524 503.807 1524 490H1516C1516 499.389 1508.39 507 1499 507V515ZM788 490C788 503.807 799.193 515 813 515V507C803.611 507 796 499.389 796 490H788ZM771 381C780.389 381 788 388.611 788 398H796C796 384.193 784.807 373 771 373V381ZM-4 356C-4 369.807 7.19288 381 21 381V373C11.6112 373 4 365.389 4 356H-4ZM1499 4C1508.39 4 1516 11.6111 1516 21H1524C1524 7.19289 1512.81 -4 1499 -4V4ZM21 -4C7.19288 -4 -4 7.19288 -4 21H4C4 11.6112 11.6112 4 21 4V-4Z" fill="url(#paint0_linear_49_2758)" mask="url(#path-1-inside-1_49_2758)"/>
<path fill-rule="evenodd" clip-rule="evenodd" d="M382.419 457.215V451.386H61.793V498.023H586.457V451.386H586.455V457.215H580.626V451.386H580.625V457.215H574.795H568.966H563.136V451.386H563.136V457.215H557.307H557.306H551.478H545.648V451.386H545.648V457.215H539.818H533.989V451.386H533.988V457.215H528.158H522.329H516.499V451.386H510.669V457.215H504.84V451.386H499.011V457.215H493.181V451.386H487.352V457.215H481.522V451.386H464.032V457.215H458.203V451.386H452.374V457.215H446.545V451.386H440.716V457.215H434.886V451.386H405.736V457.215H399.907V451.386H388.248V457.215H382.419ZM586.455 457.215H580.626V463.045V468.874V474.704H586.455V468.874V463.045V457.215ZM586.455 474.704V480.534H580.626V474.704H586.455ZM580.626 480.534V486.363V492.192V492.193V498.022H586.455V492.193V492.192V486.364V480.534H580.626ZM580.625 457.215H574.795H568.966H563.136V463.045V468.874V474.704H568.966H574.795H580.625V468.874V463.045V457.215ZM574.795 474.704H580.625V480.534H574.795H568.966H563.136V474.704H568.966H574.795ZM580.625 480.534H574.795H568.966H563.136V486.363V492.192V492.193V498.022H568.966H574.795H580.625V492.193V492.192V486.364V480.534ZM568.966 492.192H568.967V486.364L574.795 486.364H568.966V492.192ZM557.306 457.215H563.136V463.045H557.307V468.874H563.136V474.704H557.307H557.306H551.478V468.874H545.648V463.045V457.215H551.478V463.045H557.306V457.215ZM557.307 474.704H563.136V480.534H557.307H557.306H551.478H545.648V474.704H551.478H557.306H557.307ZM563.136 480.534H557.307H557.306H551.478H545.648V486.363V492.192V492.193V498.022H551.478H557.306H557.307H563.136V492.193V492.192V486.364V480.534ZM557.306 492.192H551.478V486.364H557.306V492.192ZM539.818 457.215H545.648V463.045V468.874V474.704H539.818H533.989V468.874V463.045H539.818V457.215ZM545.648 474.704H539.818H533.989V480.534H539.818H545.648V474.704ZM533.989 498.022H539.818H545.648V492.193V492.192V486.363H539.818V480.534H533.989V486.363V492.192V492.193V498.022ZM522.329 457.215H528.158H533.988V463.045V468.874H528.158V474.704H522.329V468.874H516.499V463.045H522.329V457.215ZM522.329 463.045V468.874H528.158V463.045H522.329ZM533.988 474.704H528.158H522.329V480.534H528.158H533.988V474.704ZM528.158 480.534H533.988V486.363V492.193H528.158V498.022H522.329H516.499V492.193V492.192V486.364V480.534H522.329V486.363V492.192H528.158V486.364V480.534ZM516.499 457.215H510.669V463.045H516.499V457.215ZM510.669 468.874H516.499V474.704H510.669V468.874ZM516.499 486.363H510.669H504.84V480.534H499.01V486.363H493.181V492.192V492.193V498.022H499.01H504.84V492.193H510.669H516.499V486.363ZM504.84 492.192H499.011V486.364H504.84V492.192ZM510.669 474.704H504.84H499.01V480.534H504.84H510.669V474.704ZM504.84 457.215H499.011H493.181H487.352V463.045V468.874H493.181V474.704H499.011V468.874H504.84V463.045V457.215ZM493.181 468.874V463.045H499.01V468.874H493.181ZM493.181 474.704H487.352H481.522V480.534H487.352H493.181V474.704ZM481.522 480.534H487.352V486.364H481.522V480.534ZM487.352 492.192H481.522V498.022H487.352V492.192ZM475.692 457.215H481.521V463.045H475.692V468.874H481.521V474.704H475.692V468.874H469.862V463.045H475.692V457.215ZM475.692 486.363H469.862V492.193H475.692V486.363ZM464.032 468.874H469.862V474.704H464.032V468.874ZM469.862 480.534H464.032H458.203V486.363H452.373V492.192V492.193V498.022H458.203V492.193V492.192V486.364H464.032H469.862V480.534ZM464.032 457.215H458.203V463.045H464.032V457.215ZM458.203 468.874H452.373V474.704H458.203V468.874ZM446.545 468.874H440.716V463.045H434.886V468.874H440.715V474.704H446.545V468.874ZM440.715 480.534H446.545V486.364H440.716V492.193H434.886V486.363H440.715V480.534ZM429.056 457.215H434.885V463.045H429.056V457.215ZM434.885 474.704H429.056V480.534H434.885V474.704ZM429.056 492.192H434.885V498.022H429.056V492.192ZM429.056 468.874H423.226V474.704H429.056V468.874ZM417.397 457.215H423.227V463.045H417.397V457.215ZM423.227 486.363H417.397V492.192V492.193V498.022H423.227V492.193V492.192V486.363ZM417.396 474.704H411.567V480.534H417.396V474.704ZM405.737 486.364H411.567V492.193H417.396V486.363H411.567V480.534H405.737V486.364ZM411.567 457.215H405.737V463.045H411.567V457.215ZM394.077 492.192H399.907V498.022H394.077V492.192ZM382.419 474.704H388.248V480.534H382.419V474.704ZM382.419 468.874H376.589V474.704H382.419V468.874ZM70.9604 461.796H86.3324V459.654H68.6504L68.6084 489.054H86.3324V486.912H70.9604V475.32H84.9464V473.262H70.9604V461.796ZM94.1772 484.98C92.9732 483.328 92.3712 481.27 92.3712 478.806C92.3712 476.314 92.9732 474.256 94.1772 472.632C95.3812 471.008 97.1312 470.196 99.4272 470.196C101.667 470.196 103.389 471.022 104.593 472.674C105.825 474.298 106.441 476.342 106.441 478.806C106.441 481.27 105.839 483.328 104.635 484.98C103.431 486.604 101.695 487.416 99.4272 487.416C97.1312 487.416 95.3812 486.604 94.1772 484.98ZM90.9432 473.514C90.3272 475.138 90.0192 476.902 90.0192 478.806C90.0192 480.71 90.3272 482.474 90.9432 484.098C91.5872 485.722 92.5532 487.038 93.8412 488.046C95.1572 489.054 96.7952 489.558 98.7552 489.558C100.603 489.558 102.129 489.138 103.333 488.298C104.565 487.43 105.489 486.282 106.105 484.854C106.301 484.462 106.413 484.21 106.441 484.098H106.945C106.805 484.714 106.679 485.414 106.567 486.198C106.483 486.982 106.441 487.752 106.441 488.508V489.054H108.793V459.654H106.441V468.684C106.441 470.364 106.609 471.974 106.945 473.514H106.441C105.825 471.862 104.887 470.546 103.627 469.566C102.367 468.558 100.757 468.054 98.7972 468.054C96.8372 468.054 95.1992 468.558 93.8832 469.566C92.5672 470.574 91.5872 471.89 90.9432 473.514ZM116.933 469.734C116.933 469.398 116.807 469.118 116.555 468.894C116.331 468.67 116.051 468.558 115.715 468.558H112.271V470.7H113.951C114.119 470.7 114.259 470.77 114.371 470.91C114.511 471.022 114.581 471.162 114.581 471.33V489.054H116.933V469.734ZM115.715 462.258C115.295 462.258 114.931 462.118 114.623 461.838C114.343 461.53 114.203 461.18 114.203 460.788C114.203 460.396 114.343 460.06 114.623 459.78C114.931 459.472 115.295 459.318 115.715 459.318C116.107 459.318 116.443 459.472 116.723 459.78C117.031 460.06 117.185 460.396 117.185 460.788C117.185 461.18 117.031 461.53 116.723 461.838C116.443 462.118 116.107 462.258 115.715 462.258ZM122.787 483.006C122.787 484.098 123.039 485.106 123.543 486.03C124.075 486.954 124.789 487.696 125.685 488.256C126.609 488.788 127.659 489.054 128.835 489.054H130.641V486.912H129.003C127.939 486.912 127.029 486.534 126.273 485.778C125.517 484.994 125.139 484.07 125.139 483.006V470.7H130.641V468.558H125.139V459.654H122.787V468.558H120.183V470.7H122.787V483.006ZM137.031 469.734C137.031 469.398 136.905 469.118 136.653 468.894C136.429 468.67 136.149 468.558 135.813 468.558H132.369V470.7H134.049C134.217 470.7 134.357 470.77 134.469 470.91C134.609 471.022 134.679 471.162 134.679 471.33V489.054H137.031V469.734ZM135.813 462.258C135.393 462.258 135.029 462.118 134.721 461.838C134.441 461.53 134.301 461.18 134.301 460.788C134.301 460.396 134.441 460.06 134.721 459.78C135.029 459.472 135.393 459.318 135.813 459.318C136.205 459.318 136.541 459.472 136.821 459.78C137.129 460.06 137.283 460.396 137.283 460.788C137.283 461.18 137.129 461.53 136.821 461.838C136.541 462.118 136.205 462.258 135.813 462.258ZM154.687 486.366C153.623 487.234 152.265 487.668 150.613 487.668C148.961 487.668 147.589 487.234 146.497 486.366C145.433 485.498 144.649 484.392 144.145 483.048C143.669 481.704 143.431 480.29 143.431 478.806C143.431 477.322 143.669 475.908 144.145 474.564C144.649 473.22 145.433 472.114 146.497 471.246C147.589 470.378 148.961 469.944 150.613 469.944C152.265 469.944 153.623 470.378 154.687 471.246C155.751 472.114 156.535 473.22 157.039 474.564C157.543 475.908 157.795 477.322 157.795 478.806C157.795 480.29 157.543 481.704 157.039 483.048C156.535 484.392 155.751 485.498 154.687 486.366ZM155.863 469.65C154.491 468.586 152.741 468.054 150.613 468.054C148.457 468.054 146.679 468.586 145.279 469.65C143.907 470.686 142.899 472.03 142.255 473.682C141.611 475.306 141.289 477.014 141.289 478.806C141.289 480.598 141.611 482.32 142.255 483.972C142.899 485.596 143.907 486.94 145.279 488.004C146.679 489.04 148.457 489.558 150.613 489.558C152.741 489.558 154.491 489.04 155.863 488.004C157.263 486.94 158.285 485.596 158.929 483.972C159.601 482.32 159.937 480.598 159.937 478.806C159.937 477.014 159.601 475.306 158.929 473.682C158.285 472.03 157.263 470.686 155.863 469.65ZM182.177 477.252C182.177 475.824 181.967 474.494 181.547 473.262C181.155 472.03 180.525 470.966 179.657 470.07C178.789 469.174 177.711 468.572 176.423 468.264C174.799 467.872 173.287 467.928 171.887 468.432C170.515 468.936 169.367 469.79 168.443 470.994C167.519 472.17 166.875 473.57 166.511 475.194H166.049C166.189 474.494 166.315 473.724 166.427 472.884C166.567 472.044 166.637 471.26 166.637 470.532V468.558H164.285V489.054H166.637V482.208C166.637 480.472 166.763 478.806 167.015 477.21C167.267 475.586 167.757 474.186 168.485 473.01C169.241 471.834 170.179 470.98 171.299 470.448C172.447 469.916 173.721 469.804 175.121 470.112C176.801 470.448 178.005 471.26 178.733 472.548C179.461 473.836 179.825 475.544 179.825 477.672V489.054H182.177V477.252Z" fill="black"/>
<rect x="1.5" y="393.424" width="777" height="115.924" rx="19.5" stroke="black" stroke-width="3"/>
<path d="M53.7971 425.735C53.7971 437.418 44.3268 446.888 32.6447 446.888C20.9625 446.888 11.4922 437.418 11.4922 425.735C11.4922 414.053 20.9625 404.583 32.6447 404.583C44.3268 404.583 53.7971 414.053 53.7971 425.735Z" stroke="black" stroke-width="2"/>
<path d="M45.8459 425.735C45.8459 431.691 44.2967 437.035 41.8449 440.86C39.386 444.696 36.1099 446.888 32.6456 446.888C29.1813 446.888 25.9053 444.696 23.4464 440.86C20.9945 437.035 19.4453 431.691 19.4453 425.735C19.4453 419.78 20.9945 414.436 23.4464 410.611C25.9053 406.775 29.1813 404.583 32.6456 404.583C36.1099 404.583 39.386 406.775 41.8449 410.611C44.2967 414.436 45.8459 419.78 45.8459 425.735Z" stroke="black" stroke-width="2"/>
<path d="M51.3899 413.996L52.418 415.889C37.4617 416.737 28.3572 416.926 13.6038 415.889L14.2798 413.996C29.0661 414.745 36.1842 414.85 51.3899 413.996Z" fill="black"/>
<path d="M51.3899 413.996L52.418 415.889C37.4617 416.737 28.3572 416.926 13.6038 415.889L14.2798 413.996C29.0661 414.745 36.1842 414.85 51.3899 413.996Z" fill="black"/>
<path d="M51.3899 413.996L52.418 415.889C37.4617 416.737 28.3572 416.926 13.6038 415.889L14.2798 413.996C29.0661 414.745 36.1842 414.85 51.3899 413.996Z" fill="black"/>
<path d="M14.6316 437.236L13.6035 435.343C28.5598 434.495 37.6642 434.306 52.4177 435.343L51.7417 437.236C36.9554 436.487 29.8373 436.381 14.6316 437.236Z" fill="black"/>
<path d="M14.6316 437.236L13.6035 435.343C28.5598 434.495 37.6642 434.306 52.4177 435.343L51.7417 437.236C36.9554 436.487 29.8373 436.381 14.6316 437.236Z" fill="black"/>
<path d="M14.6316 437.236L13.6035 435.343C28.5598 434.495 37.6642 434.306 52.4177 435.343L51.7417 437.236C36.9554 436.487 29.8373 436.381 14.6316 437.236Z" fill="black"/>
<rect x="33.9707" y="447.13" width="2.27205" height="43.5476" transform="rotate(-180 33.9707 447.13)" fill="black"/>
<rect x="11.0605" y="426.493" width="2.27205" height="43.5476" transform="rotate(-90 11.0605 426.493)" fill="black"/>
<path fill-rule="evenodd" clip-rule="evenodd" d="M52.4133 491.703L34.8126 461.217C34.4277 460.551 33.4654 460.551 33.0805 461.217L15.4798 491.703C15.0949 492.369 15.576 493.203 16.3458 493.203H51.5473C52.3171 493.203 52.7982 492.369 52.4133 491.703ZM37.4106 459.717C35.871 457.051 32.022 457.051 30.4824 459.717L12.8817 490.203C11.3421 492.869 13.2666 496.203 16.3458 496.203H51.5473C54.6265 496.203 56.551 492.869 55.0114 490.203L37.4106 459.717ZM32.2041 467.225C32.2041 466.262 32.9845 465.482 33.9471 465.482C34.9098 465.482 35.6901 466.262 35.6901 467.225V481.604C35.6901 482.567 34.9098 483.347 33.9471 483.347C32.9845 483.347 32.2041 482.567 32.2041 481.604V467.225ZM33.9471 486.834C32.9845 486.834 32.2041 487.614 32.2041 488.577V489.012C32.2041 489.975 32.9845 490.755 33.9471 490.755C34.9098 490.755 35.6901 489.975 35.6901 489.012V488.577C35.6901 487.614 34.9098 486.834 33.9471 486.834Z" fill="black"/>
<path fill-rule="evenodd" clip-rule="evenodd" d="M770.609 507.349C767.326 509.531 763.394 510.814 759.164 510.847L676.232 510.847V507.349L770.609 507.349ZM778.349 498.022C777.44 500.171 776.183 502.138 774.649 503.851L676.232 503.851V498.022H682.388V499.52C682.388 500.624 683.284 501.52 684.388 501.52H695.377C696.481 501.52 697.377 500.624 697.377 499.52V498.022L778.349 498.022ZM779.87 492.192C779.782 492.984 779.65 493.762 779.477 494.524L697.377 494.524V492.192L779.87 492.192ZM779.477 408.247C779.65 409.009 779.782 409.787 779.87 410.579L724.2 410.579L722.685 409.063C721.904 408.282 720.637 408.282 719.856 409.063L718.341 410.579L697.377 410.579V408.247L779.477 408.247ZM775.619 400.085C776.969 401.83 778.051 403.794 778.801 405.914L697.377 405.914V400.085L775.619 400.085ZM773.521 397.754C773.912 398.128 774.288 398.516 774.649 398.919L697.195 398.919C696.886 398.245 696.212 397.773 695.426 397.754L773.521 397.754ZM759.1 391.924C764.061 391.947 768.615 393.69 772.197 396.587L676.232 396.588V391.924L759.1 391.924ZM676.232 400.085V405.914H682.388V400.085H676.232ZM676.232 408.247H682.388V410.579H676.232V408.247ZM676.232 416.408H682.388V418.74H676.232V416.408ZM697.377 416.408V418.74L710.179 418.74L712.511 416.408L697.377 416.408ZM676.232 423.404H682.388V424.569H676.232V423.404ZM697.377 423.404V424.569H704.35L705.516 423.404L697.377 423.404ZM676.584 425.735H682.388V426.711C682.388 426.776 682.385 426.839 682.38 426.901H677.75L676.584 425.735ZM697.377 426.714C697.377 426.778 697.379 426.84 697.385 426.901H702.018L703.184 425.735H697.377V426.714ZM678.916 428.067H681.865C681.146 428.838 679.846 428.997 678.974 428.125L678.916 428.067ZM710.949 440.892C711.168 441.432 711.615 441.879 712.217 442.058L779.999 442.058V440.892L710.949 440.892ZM741.767 446.721V451.385H779.999V446.721H741.767ZM712.807 457.13C712.597 457.13 712.4 457.16 712.217 457.215L779.999 457.215V456.049H741.544C741.211 456.691 740.54 457.13 739.767 457.13H712.807ZM676.232 474.703V473.884L678.974 471.142C680.234 469.882 682.388 470.775 682.388 472.557V474.703H676.232ZM676.232 477.035H682.388V478.201H676.232V477.035ZM697.377 477.035V478.201H707.853L706.687 477.035H697.377ZM676.232 481.699H682.388V484.031V485.197H676.232V484.031V481.699ZM676.232 486.362H682.388V488.694H676.232V486.362ZM697.377 486.362V488.694H718.346L716.014 486.362H697.377ZM676.232 492.192H682.388V494.524H676.232V492.192ZM779.999 488.694L724.201 488.694L726.532 486.362L779.999 486.362V488.694ZM779.999 485.197L727.698 485.197L728.863 484.031H779.999V485.197ZM779.999 484.031H728.864L730.458 482.437C730.673 482.221 730.829 481.969 730.926 481.699H779.999V484.031ZM713.683 484.031L711.351 481.699H697.377V484.031V485.197H714.849L713.683 484.031ZM779.999 478.201H729.05L727.884 477.035H779.999V478.201ZM779.999 474.703L725.552 474.703L717.391 466.542H779.999V474.703ZM700.791 471.139L704.355 474.703H697.377V472.553C697.377 470.772 699.531 469.879 700.791 471.139ZM722.049 428.067L712.722 437.394L779.999 437.394V428.067L722.049 428.067ZM700.791 428.128L700.852 428.067H697.897C698.615 428.841 699.918 429.002 700.791 428.128ZM779.999 426.901L723.215 426.901L724.381 425.735L779.999 425.735V426.901ZM779.999 424.569L725.547 424.569L726.713 423.404L779.999 423.404V424.569ZM779.999 418.74L730.979 418.74C731.147 418.079 730.972 417.35 730.455 416.833L730.03 416.408L779.999 416.408V418.74ZM676.232 397.754L684.338 397.754C683.553 397.773 682.879 398.245 682.57 398.919L676.232 398.919V397.754Z" fill="black"/>
<defs>
<linearGradient id="paint0_linear_49_2758" x1="746" y1="364.5" x2="766.5" y2="304.5" gradientUnits="userSpaceOnUse">
<stop/>
<stop offset="0.893995"/>
<stop offset="1" stop-opacity="0"/>
</linearGradient>
</defs>
</svg>
