<svg width="1560" height="1478" viewBox="0 0 1560 1478" fill="none" xmlns="http://www.w3.org/2000/svg">
<mask id="path-1-inside-1_49_2758" fill="white">
<path fill-rule="evenodd" clip-rule="evenodd" d="M1560 21C1560 9.40202 1550.6 0 1539 0H21C9.40202 0 0 9.40202 0 21V1323C0 1334.6 9.40202 1344 21 1344H771C782.598 1344 792 1353.4 792 1365V1457C792 1468.6 801.402 1478 813 1478H1539C1550.6 1478 1560 1468.6 1560 1457V21Z"/>
</mask>
<path d="M21 4H1539V-4H21V4ZM4 1323V21H-4V1323H4ZM21 1348H771V1340H21V1348ZM788 1365V1457H796V1365H788ZM1539 1474H813V1482H1539V1474ZM1556 21V1457H1564V21H1556ZM1539 1482C1552.81 1482 1564 1470.81 1564 1457H1556C1556 1466.39 1548.39 1474 1539 1474V1482ZM788 1457C788 1470.81 799.193 1482 813 1482V1474C803.611 1474 796 1466.39 796 1457H788ZM771 1348C780.389 1348 788 1355.61 788 1365H796C796 1351.19 784.807 1340 771 1340V1348ZM-4 1323C-4 1336.81 7.19288 1348 21 1348V1340C11.6112 1340 4 1332.39 4 1323H-4ZM1539 4C1548.39 4 1556 11.6112 1556 21H1564C1564 7.19288 1552.81 -4 1539 -4V4ZM21 -4C7.19288 -4 -4 7.19288 -4 21H4C4 11.6112 11.6112 4 21 4V-4Z" fill="black" mask="url(#path-1-inside-1_49_2758)"/>
<path fill-rule="evenodd" clip-rule="evenodd" d="M382.419 1424.22V1418.39H61.793V1465.02H586.457V1418.39H586.455V1424.22H580.626V1418.39H580.625V1424.22H574.795H568.966H563.136V1418.39H563.136V1424.22H557.307H557.306H551.478H545.648V1418.39H545.648V1424.22H539.818H533.989V1418.39H533.988V1424.22H528.158H522.329H516.499V1418.39H510.669V1424.22H504.84V1418.39H499.011V1424.22H493.181V1418.39H487.352V1424.22H481.522V1418.39H464.032V1424.22H458.203V1418.39H452.374V1424.22H446.545V1418.39H440.716V1424.22H434.886V1418.39H405.736V1424.22H399.907V1418.39H388.248V1424.22H382.419ZM586.455 1424.22H580.626V1430.04V1435.87V1441.7H586.455V1435.87V1430.05V1424.22ZM586.455 1441.7V1447.53H580.626V1441.7H586.455ZM580.626 1447.53V1453.36V1459.19V1459.19V1465.02H586.455V1459.19V1459.19V1453.36V1447.53H580.626ZM580.625 1424.22H574.795H568.966H563.136V1430.04V1435.87V1441.7H568.966H574.795H580.625V1435.87V1430.05V1424.22ZM574.795 1441.7H580.625V1447.53H574.795H568.966H563.136V1441.7H568.966H574.795ZM580.625 1447.53H574.795H568.966H563.136V1453.36V1459.19V1459.19V1465.02H568.966H574.795H580.625V1459.19V1459.19V1453.36V1447.53ZM568.966 1459.19H568.967V1453.36L574.795 1453.36H568.966V1459.19ZM557.306 1424.22H563.136V1430.05H557.307V1435.87H563.136V1441.7H557.307H557.306H551.478V1435.87H545.648V1430.05V1424.22H551.478V1430.04H557.306V1424.22ZM557.307 1441.7H563.136V1447.53H557.307H557.306H551.478H545.648V1441.7H551.478H557.306H557.307ZM563.136 1447.53H557.307H557.306H551.478H545.648V1453.36V1459.19V1459.19V1465.02H551.478H557.306H557.307H563.136V1459.19V1459.19V1453.36V1447.53ZM557.306 1459.19H551.478V1453.36H557.306V1459.19ZM539.818 1424.22H545.648V1430.04V1435.87V1441.7H539.818H533.989V1435.87V1430.04H539.818V1424.22ZM545.648 1441.7H539.818H533.989V1447.53H539.818H545.648V1441.7ZM533.989 1465.02H539.818H545.648V1459.19V1459.19V1453.36H539.818V1447.53H533.989V1453.36V1459.19V1459.19V1465.02ZM522.329 1424.22H528.158H533.988V1430.04V1435.87H528.158V1441.7H522.329V1435.87H516.499V1430.04H522.329V1424.22ZM522.329 1430.05V1435.87H528.158V1430.05H522.329ZM533.988 1441.7H528.158H522.329V1447.53H528.158H533.988V1441.7ZM528.158 1447.53H533.988V1453.36V1459.19H528.158V1465.02H522.329H516.499V1459.19V1459.19V1453.36V1447.53H522.329V1453.36V1459.19H528.158V1453.36V1447.53ZM516.499 1424.22H510.669V1430.05H516.499V1424.22ZM510.669 1435.87H516.499V1441.7H510.669V1435.87ZM516.499 1453.36H510.669H504.84V1447.53H499.01V1453.36H493.181V1459.19V1459.19V1465.02H499.01H504.84V1459.19H510.669H516.499V1453.36ZM504.84 1459.19H499.011V1453.36H504.84V1459.19ZM510.669 1441.7H504.84H499.01V1447.53H504.84H510.669V1441.7ZM504.84 1424.22H499.011H493.181H487.352V1430.04V1435.87H493.181V1441.7H499.011V1435.87H504.84V1430.05V1424.22ZM493.181 1435.87V1430.05H499.01V1435.87H493.181ZM493.181 1441.7H487.352H481.522V1447.53H487.352H493.181V1441.7ZM481.522 1447.53H487.352V1453.36H481.522V1447.53ZM487.352 1459.19H481.522V1465.02H487.352V1459.19ZM475.692 1424.22H481.521V1430.05H475.692V1435.87H481.521V1441.7H475.692V1435.87H469.862V1430.04H475.692V1424.22ZM475.692 1453.36H469.862V1459.19H475.692V1453.36ZM464.032 1435.87H469.862V1441.7H464.032V1435.87ZM469.862 1447.53H464.032H458.203V1453.36H452.373V1459.19V1459.19V1465.02H458.203V1459.19V1459.19V1453.36H464.032H469.862V1447.53ZM464.032 1424.22H458.203V1430.05H464.032V1424.22ZM458.203 1435.87H452.373V1441.7H458.203V1435.87ZM446.545 1435.87H440.716V1430.04H434.886V1435.87H440.715V1441.7H446.545V1435.87ZM440.715 1447.53H446.545V1453.36H440.716V1459.19H434.886V1453.36H440.715V1447.53ZM429.056 1424.22H434.885V1430.05H429.056V1424.22ZM434.885 1441.7H429.056V1447.53H434.885V1441.7ZM429.056 1459.19H434.885V1465.02H429.056V1459.19ZM429.056 1435.87H423.226V1441.7H429.056V1435.87ZM417.397 1424.22H423.227V1430.05H417.397V1424.22ZM423.227 1453.36H417.397V1459.19V1459.19V1465.02H423.227V1459.19V1459.19V1453.36ZM417.396 1441.7H411.567V1447.53H417.396V1441.7ZM405.737 1453.36H411.567V1459.19H417.396V1453.36H411.567V1447.53H405.737V1453.36ZM411.567 1424.22H405.737V1430.05H411.567V1424.22ZM394.077 1459.19H399.907V1465.02H394.077V1459.19ZM382.419 1441.7H388.248V1447.53H382.419V1441.7ZM382.419 1435.87H376.589V1441.7H382.419V1435.87ZM70.9604 1428.8H86.3324V1426.65H68.6504L68.6084 1456.05H86.3324V1453.91H70.9604V1442.32H84.9464V1440.26H70.9604V1428.8ZM94.1772 1451.98C92.9732 1450.33 92.3712 1448.27 92.3712 1445.81C92.3712 1443.31 92.9732 1441.26 94.1772 1439.63C95.3812 1438.01 97.1312 1437.2 99.4272 1437.2C101.667 1437.2 103.389 1438.02 104.593 1439.67C105.825 1441.3 106.441 1443.34 106.441 1445.81C106.441 1448.27 105.839 1450.33 104.635 1451.98C103.431 1453.6 101.695 1454.42 99.4272 1454.42C97.1312 1454.42 95.3812 1453.6 94.1772 1451.98ZM90.9432 1440.51C90.3272 1442.14 90.0192 1443.9 90.0192 1445.81C90.0192 1447.71 90.3272 1449.47 90.9432 1451.1C91.5872 1452.72 92.5532 1454.04 93.8412 1455.05C95.1572 1456.05 96.7952 1456.56 98.7552 1456.56C100.603 1456.56 102.129 1456.14 103.333 1455.3C104.565 1454.43 105.489 1453.28 106.105 1451.85C106.301 1451.46 106.413 1451.21 106.441 1451.1H106.945C106.805 1451.71 106.679 1452.41 106.567 1453.2C106.483 1453.98 106.441 1454.75 106.441 1455.51V1456.05H108.793V1426.65H106.441V1435.68C106.441 1437.36 106.609 1438.97 106.945 1440.51H106.441C105.825 1438.86 104.887 1437.55 103.627 1436.57C102.367 1435.56 100.757 1435.05 98.7972 1435.05C96.8372 1435.05 95.1992 1435.56 93.8832 1436.57C92.5672 1437.57 91.5872 1438.89 90.9432 1440.51ZM116.933 1436.73C116.933 1436.4 116.807 1436.12 116.555 1435.89C116.331 1435.67 116.051 1435.56 115.715 1435.56H112.271V1437.7H113.951C114.119 1437.7 114.259 1437.77 114.371 1437.91C114.511 1438.02 114.581 1438.16 114.581 1438.33V1456.05H116.933V1436.73ZM115.715 1429.26C115.295 1429.26 114.931 1429.12 114.623 1428.84C114.343 1428.53 114.203 1428.18 114.203 1427.79C114.203 1427.4 114.343 1427.06 114.623 1426.78C114.931 1426.47 115.295 1426.32 115.715 1426.32C116.107 1426.32 116.443 1426.47 116.723 1426.78C117.031 1427.06 117.185 1427.4 117.185 1427.79C117.185 1428.18 117.031 1428.53 116.723 1428.84C116.443 1429.12 116.107 1429.26 115.715 1429.26ZM122.787 1450.01C122.787 1451.1 123.039 1452.11 123.543 1453.03C124.075 1453.95 124.789 1454.7 125.685 1455.26C126.609 1455.79 127.659 1456.05 128.835 1456.05H130.641V1453.91H129.003C127.939 1453.91 127.029 1453.53 126.273 1452.78C125.517 1451.99 125.139 1451.07 125.139 1450.01V1437.7H130.641V1435.56H125.139V1426.65H122.787V1435.56H120.183V1437.7H122.787V1450.01ZM137.031 1436.73C137.031 1436.4 136.905 1436.12 136.653 1435.89C136.429 1435.67 136.149 1435.56 135.813 1435.56H132.369V1437.7H134.049C134.217 1437.7 134.357 1437.77 134.469 1437.91C134.609 1438.02 134.679 1438.16 134.679 1438.33V1456.05H137.031V1436.73ZM135.813 1429.26C135.393 1429.26 135.029 1429.12 134.721 1428.84C134.441 1428.53 134.301 1428.18 134.301 1427.79C134.301 1427.4 134.441 1427.06 134.721 1426.78C135.029 1426.47 135.393 1426.32 135.813 1426.32C136.205 1426.32 136.541 1426.47 136.821 1426.78C137.129 1427.06 137.283 1427.4 137.283 1427.79C137.283 1428.18 137.129 1428.53 136.821 1428.84C136.541 1429.12 136.205 1429.26 135.813 1429.26ZM154.687 1453.37C153.623 1454.23 152.265 1454.67 150.613 1454.67C148.961 1454.67 147.589 1454.23 146.497 1453.37C145.433 1452.5 144.649 1451.39 144.145 1450.05C143.669 1448.7 143.431 1447.29 143.431 1445.81C143.431 1444.32 143.669 1442.91 144.145 1441.56C144.649 1440.22 145.433 1439.11 146.497 1438.25C147.589 1437.38 148.961 1436.94 150.613 1436.94C152.265 1436.94 153.623 1437.38 154.687 1438.25C155.751 1439.11 156.535 1440.22 157.039 1441.56C157.543 1442.91 157.795 1444.32 157.795 1445.81C157.795 1447.29 157.543 1448.7 157.039 1450.05C156.535 1451.39 155.751 1452.5 154.687 1453.37ZM155.863 1436.65C154.491 1435.59 152.741 1435.05 150.613 1435.05C148.457 1435.05 146.679 1435.59 145.279 1436.65C143.907 1437.69 142.899 1439.03 142.255 1440.68C141.611 1442.31 141.289 1444.01 141.289 1445.81C141.289 1447.6 141.611 1449.32 142.255 1450.97C142.899 1452.6 143.907 1453.94 145.279 1455C146.679 1456.04 148.457 1456.56 150.613 1456.56C152.741 1456.56 154.491 1456.04 155.863 1455C157.263 1453.94 158.285 1452.6 158.929 1450.97C159.601 1449.32 159.937 1447.6 159.937 1445.81C159.937 1444.01 159.601 1442.31 158.929 1440.68C158.285 1439.03 157.263 1437.69 155.863 1436.65ZM182.177 1444.25C182.177 1442.82 181.967 1441.49 181.547 1440.26C181.155 1439.03 180.525 1437.97 179.657 1437.07C178.789 1436.17 177.711 1435.57 176.423 1435.26C174.799 1434.87 173.287 1434.93 171.887 1435.43C170.515 1435.94 169.367 1436.79 168.443 1437.99C167.519 1439.17 166.875 1440.57 166.511 1442.19H166.049C166.189 1441.49 166.315 1440.72 166.427 1439.88C166.567 1439.04 166.637 1438.26 166.637 1437.53V1435.56H164.285V1456.05H166.637V1449.21C166.637 1447.47 166.763 1445.81 167.015 1444.21C167.267 1442.59 167.757 1441.19 168.485 1440.01C169.241 1438.83 170.179 1437.98 171.299 1437.45C172.447 1436.92 173.721 1436.8 175.121 1437.11C176.801 1437.45 178.005 1438.26 178.733 1439.55C179.461 1440.84 179.825 1442.54 179.825 1444.67V1456.05H182.177V1444.25Z" fill="black"/>
<rect x="1.5" y="1360.42" width="777" height="115.924" rx="19.5" stroke="black" stroke-width="3"/>
<path d="M53.7971 1392.74C53.7971 1404.42 44.3268 1413.89 32.6447 1413.89C20.9625 1413.89 11.4922 1404.42 11.4922 1392.74C11.4922 1381.05 20.9625 1371.58 32.6447 1371.58C44.3268 1371.58 53.7971 1381.05 53.7971 1392.74Z" stroke="black" stroke-width="2"/>
<path d="M45.8459 1392.74C45.8459 1398.69 44.2967 1404.04 41.8449 1407.86C39.386 1411.7 36.1099 1413.89 32.6456 1413.89C29.1813 1413.89 25.9053 1411.7 23.4464 1407.86C20.9945 1404.04 19.4453 1398.69 19.4453 1392.74C19.4453 1386.78 20.9945 1381.44 23.4464 1377.61C25.9053 1373.78 29.1813 1371.58 32.6456 1371.58C36.1099 1371.58 39.386 1373.78 41.8449 1377.61C44.2967 1381.44 45.8459 1386.78 45.8459 1392.74Z" stroke="black" stroke-width="2"/>
<path d="M51.3899 1381L52.418 1382.89C37.4617 1383.74 28.3572 1383.93 13.6038 1382.89L14.2798 1381C29.0661 1381.74 36.1842 1381.85 51.3899 1381Z" fill="black"/>
<path d="M51.3899 1381L52.418 1382.89C37.4617 1383.74 28.3572 1383.93 13.6038 1382.89L14.2798 1381C29.0661 1381.74 36.1842 1381.85 51.3899 1381Z" fill="black"/>
<path d="M51.3899 1381L52.418 1382.89C37.4617 1383.74 28.3572 1383.93 13.6038 1382.89L14.2798 1381C29.0661 1381.74 36.1842 1381.85 51.3899 1381Z" fill="black"/>
<path d="M14.6316 1404.24L13.6035 1402.34C28.5598 1401.49 37.6642 1401.31 52.4177 1402.34L51.7417 1404.24C36.9554 1403.49 29.8373 1403.38 14.6316 1404.24Z" fill="black"/>
<path d="M14.6316 1404.24L13.6035 1402.34C28.5598 1401.49 37.6642 1401.31 52.4177 1402.34L51.7417 1404.24C36.9554 1403.49 29.8373 1403.38 14.6316 1404.24Z" fill="black"/>
<path d="M14.6316 1404.24L13.6035 1402.34C28.5598 1401.49 37.6642 1401.31 52.4177 1402.34L51.7417 1404.24C36.9554 1403.49 29.8373 1403.38 14.6316 1404.24Z" fill="black"/>
<rect x="33.9707" y="1414.13" width="2.27205" height="43.5476" transform="rotate(-180 33.9707 1414.13)" fill="black"/>
<rect x="11.0605" y="1393.49" width="2.27205" height="43.5476" transform="rotate(-90 11.0605 1393.49)" fill="black"/>
<path fill-rule="evenodd" clip-rule="evenodd" d="M52.4133 1458.7L34.8126 1428.22C34.4277 1427.55 33.4654 1427.55 33.0805 1428.22L15.4798 1458.7C15.0949 1459.37 15.576 1460.2 16.3458 1460.2H51.5473C52.3171 1460.2 52.7982 1459.37 52.4133 1458.7ZM37.4106 1426.72C35.871 1424.05 32.022 1424.05 30.4824 1426.72L12.8817 1457.2C11.3421 1459.87 13.2666 1463.2 16.3458 1463.2H51.5473C54.6265 1463.2 56.551 1459.87 55.0114 1457.2L37.4106 1426.72ZM32.2041 1434.22C32.2041 1433.26 32.9845 1432.48 33.9471 1432.48C34.9098 1432.48 35.6901 1433.26 35.6901 1434.22V1448.6C35.6901 1449.57 34.9098 1450.35 33.9471 1450.35C32.9845 1450.35 32.2041 1449.57 32.2041 1448.6V1434.22ZM33.9471 1453.83C32.9845 1453.83 32.2041 1454.61 32.2041 1455.58V1456.01C32.2041 1456.97 32.9845 1457.76 33.9471 1457.76C34.9098 1457.76 35.6901 1456.97 35.6901 1456.01V1455.58C35.6901 1454.61 34.9098 1453.83 33.9471 1453.83Z" fill="black"/>
<path fill-rule="evenodd" clip-rule="evenodd" d="M770.609 1474.35C767.326 1476.53 763.394 1477.81 759.164 1477.85L676.232 1477.85V1474.35L770.609 1474.35ZM778.349 1465.02C777.44 1467.17 776.183 1469.14 774.649 1470.85L676.232 1470.85V1468.52H681.726C682.83 1468.52 683.726 1467.62 683.726 1466.52V1465.02L778.349 1465.02ZM779.87 1459.19C779.782 1459.98 779.65 1460.76 779.477 1461.52L683.726 1461.52V1459.19L779.87 1459.19ZM779.477 1375.25C779.65 1376.01 779.782 1376.79 779.87 1377.58L710.549 1377.58L709.034 1376.06C708.253 1375.28 706.986 1375.28 706.205 1376.06L704.69 1377.58L683.726 1377.58V1375.25L779.477 1375.25ZM775.619 1367.08C776.969 1368.83 778.051 1370.79 778.801 1372.91L683.726 1372.91V1367.08L775.619 1367.08ZM773.521 1364.75C773.912 1365.13 774.288 1365.52 774.649 1365.92L683.544 1365.92C683.234 1365.24 682.56 1364.77 681.773 1364.75L773.521 1364.75ZM759.1 1358.92C764.061 1358.95 768.615 1360.69 772.197 1363.59L676.232 1363.59V1358.92L759.1 1358.92ZM683.726 1383.41V1385.74H696.528L698.86 1383.41H683.726ZM683.726 1390.4V1391.57H690.699L691.865 1390.4H683.726ZM683.726 1393.71C683.726 1393.78 683.728 1393.84 683.734 1393.9H688.367L689.533 1392.74H683.726V1393.71ZM697.298 1407.89C697.517 1408.43 697.964 1408.88 698.565 1409.06L779.999 1409.06V1407.89L697.298 1407.89ZM728.116 1413.72V1418.38H779.999V1413.72H728.116ZM699.156 1424.13C698.947 1424.13 698.749 1424.16 698.566 1424.21L779.999 1424.21V1423.05H727.893C727.56 1423.69 726.889 1424.13 726.116 1424.13H699.156ZM683.726 1444.04V1445.2H694.202L693.036 1444.04H683.726ZM683.726 1451.03V1452.2H701.198L700.032 1451.03L697.7 1448.7H683.726V1451.03ZM683.726 1453.36V1455.69H704.695L702.363 1453.36H683.726ZM779.999 1453.36V1455.69L710.55 1455.69L712.882 1453.36L779.999 1453.36ZM779.999 1451.03V1452.2L714.047 1452.2L715.213 1451.03H779.999ZM779.999 1451.03L715.213 1451.03L716.807 1449.44C717.022 1449.22 717.178 1448.97 717.275 1448.7L779.999 1448.7V1451.03ZM779.999 1445.2L715.399 1445.2L714.233 1444.04H779.999V1445.2ZM779.999 1441.7L711.901 1441.7L703.74 1433.54H779.999V1441.7ZM687.14 1438.14L690.704 1441.7H683.726V1439.55C683.726 1437.77 685.88 1436.88 687.14 1438.14ZM708.399 1395.07L699.071 1404.39L779.999 1404.39V1395.07L708.399 1395.07ZM687.14 1395.13L687.202 1395.07H684.246C684.964 1395.84 686.267 1396 687.14 1395.13ZM779.999 1393.9L709.564 1393.9L710.73 1392.74L779.999 1392.74V1393.9ZM779.999 1391.57L711.896 1391.57L713.062 1390.4L779.999 1390.4V1391.57ZM779.999 1385.74L717.328 1385.74C717.496 1385.08 717.321 1384.35 716.804 1383.83L716.379 1383.41L779.999 1383.41V1385.74Z" fill="black"/>
<path d="M1173 1432C1173 1426.48 1177.48 1422 1183 1422H1220V1462H1183C1177.48 1462 1173 1457.52 1173 1452V1432Z" fill="black"/>
<rect x="1220" y="1422" width="46" height="40" fill="#301010"/>
<rect x="1266" y="1422" width="47" height="40" fill="#C44848"/>
<rect x="1313" y="1422" width="46" height="40" fill="#F8A151"/>
<rect x="1359" y="1422" width="46" height="40" fill="#E2FFA5"/>
<rect x="1405" y="1422" width="47" height="40" fill="#C9FFF5"/>
<rect x="1452" y="1422" width="46" height="40" fill="white"/>
<path d="M1498 1422H1535C1540.52 1422 1545 1426.48 1545 1432V1452C1545 1457.52 1540.52 1462 1535 1462H1498V1422Z" fill="#79DFFF"/>
</svg>
