<svg width="1520" height="511" viewBox="0 0 1520 511" fill="none" xmlns="http://www.w3.org/2000/svg">
<mask id="path-1-inside-1_96_698" fill="white">
<path fill-rule="evenodd" clip-rule="evenodd" d="M1520 21C1520 9.40202 1510.6 0 1499 0H21C9.40202 0 0 9.40202 0 21V356C0 367.598 9.40202 377 21 377H771C782.598 377 792 386.402 792 398V490C792 501.598 801.402 511 813 511H1499C1510.6 511 1520 501.598 1520 490V21Z"/>
</mask>
<path d="M21 4H1499V-4H21V4ZM4 356V21H-4V356H4ZM21 381H771V373H21V381ZM788 398V490H796V398H788ZM1499 507H813V515H1499V507ZM1516 21V490H1524V21H1516ZM1499 515C1512.81 515 1524 503.807 1524 490H1516C1516 499.389 1508.39 507 1499 507V515ZM788 490C788 503.807 799.193 515 813 515V507C803.611 507 796 499.389 796 490H788ZM771 381C780.389 381 788 388.611 788 398H796C796 384.193 784.807 373 771 373V381ZM-4 356C-4 369.807 7.19288 381 21 381V373C11.6112 373 4 365.389 4 356H-4ZM1499 4C1508.39 4 1516 11.6111 1516 21H1524C1524 7.19289 1512.81 -4 1499 -4V4ZM21 -4C7.19288 -4 -4 7.19288 -4 21H4C4 11.6112 11.6112 4 21 4V-4Z" fill="url(#paint0_linear_96_698)" mask="url(#path-1-inside-1_96_698)"/>
<path fill-rule="evenodd" clip-rule="evenodd" d="M382.42 457.215V451.386H61.7939V498.023H586.458V451.386H586.456V457.215H580.627V451.386H580.626V457.215H574.796H568.967H563.137V451.386H563.137V457.215H557.308H557.307H551.479H545.649V451.386H545.649V457.215H539.819H533.99V451.386H533.989V457.215H528.159H522.33H516.5V451.386H510.67V457.215H504.841V451.386H499.012V457.215H493.182V451.386H487.353V457.215H481.523V451.386H464.033V457.215H458.204V451.386H452.375V457.215H446.546V451.386H440.717V457.215H434.887V451.386H405.737V457.215H399.908V451.386H388.249V457.215H382.42ZM586.456 457.215H580.627V463.045V468.874V474.704H586.456V468.874V463.045V457.215ZM586.456 474.704V480.534H580.627V474.704H586.456ZM580.627 480.534V486.363V492.192V492.193V498.022H586.456V492.193V492.192V486.364V480.534H580.627ZM580.626 457.215H574.796H568.967H563.137V463.045V468.874V474.704H568.967H574.796H580.626V468.874V463.045V457.215ZM574.796 474.704H580.626V480.534H574.796H568.967H563.137V474.704H568.967H574.796ZM580.626 480.534H574.796H568.967H563.137V486.363V492.192V492.193V498.022H568.967H574.796H580.626V492.193V492.192V486.364V480.534ZM568.967 492.192H568.968V486.364L574.796 486.364H568.967V492.192ZM557.307 457.215H563.137V463.045H557.308V468.874H563.137V474.704H557.308H557.307H551.479V468.874H545.649V463.045V457.215H551.479V463.045H557.307V457.215ZM557.308 474.704H563.137V480.534H557.308H557.307H551.479H545.649V474.704H551.479H557.307H557.308ZM563.137 480.534H557.308H557.307H551.479H545.649V486.363V492.192V492.193V498.022H551.479H557.307H557.308H563.137V492.193V492.192V486.364V480.534ZM557.307 492.192H551.479V486.364H557.307V492.192ZM539.819 457.215H545.649V463.045V468.874V474.704H539.819H533.99V468.874V463.045H539.819V457.215ZM545.649 474.704H539.819H533.99V480.534H539.819H545.649V474.704ZM533.99 498.022H539.819H545.649V492.193V492.192V486.363H539.819V480.534H533.99V486.363V492.192V492.193V498.022ZM522.33 457.215H528.159H533.989V463.045V468.874H528.159V474.704H522.33V468.874H516.5V463.045H522.33V457.215ZM522.33 463.045V468.874H528.159V463.045H522.33ZM533.989 474.704H528.159H522.33V480.534H528.159H533.989V474.704ZM528.159 480.534H533.989V486.363V492.193H528.159V498.022H522.33H516.5V492.193V492.192V486.364V480.534H522.33V486.363V492.192H528.159V486.364V480.534ZM516.5 457.215H510.67V463.045H516.5V457.215ZM510.67 468.874H516.5V474.704H510.67V468.874ZM516.5 486.363H510.67H504.841V480.534H499.011V486.363H493.182V492.192V492.193V498.022H499.011H504.841V492.193H510.67H516.5V486.363ZM504.841 492.192H499.012V486.364H504.841V492.192ZM510.67 474.704H504.841H499.011V480.534H504.841H510.67V474.704ZM504.841 457.215H499.012H493.182H487.353V463.045V468.874H493.182V474.704H499.012V468.874H504.841V463.045V457.215ZM493.182 468.874V463.045H499.011V468.874H493.182ZM493.182 474.704H487.353H481.523V480.534H487.353H493.182V474.704ZM481.523 480.534H487.353V486.364H481.523V480.534ZM487.353 492.192H481.523V498.022H487.353V492.192ZM475.693 457.215H481.522V463.045H475.693V468.874H481.522V474.704H475.693V468.874H469.863V463.045H475.693V457.215ZM475.693 486.363H469.863V492.193H475.693V486.363ZM464.033 468.874H469.863V474.704H464.033V468.874ZM469.863 480.534H464.033H458.204V486.363H452.374V492.192V492.193V498.022H458.204V492.193V492.192V486.364H464.033H469.863V480.534ZM464.033 457.215H458.204V463.045H464.033V457.215ZM458.204 468.874H452.374V474.704H458.204V468.874ZM446.546 468.874H440.717V463.045H434.887V468.874H440.716V474.704H446.546V468.874ZM440.716 480.534H446.546V486.364H440.717V492.193H434.887V486.363H440.716V480.534ZM429.057 457.215H434.886V463.045H429.057V457.215ZM434.886 474.704H429.057V480.534H434.886V474.704ZM429.057 492.192H434.886V498.022H429.057V492.192ZM429.057 468.874H423.227V474.704H429.057V468.874ZM417.398 457.215H423.228V463.045H417.398V457.215ZM423.228 486.363H417.398V492.192V492.193V498.022H423.228V492.193V492.192V486.363ZM417.397 474.704H411.568V480.534H417.397V474.704ZM405.738 486.364H411.568V492.193H417.397V486.363H411.568V480.534H405.738V486.364ZM411.568 457.215H405.738V463.045H411.568V457.215ZM394.078 492.192H399.908V498.022H394.078V492.192ZM382.42 474.704H388.249V480.534H382.42V474.704ZM382.42 468.874H376.59V474.704H382.42V468.874ZM70.9614 461.796H86.3334V459.654H68.6514L68.6094 489.054H86.3334V486.912H70.9614V475.32H84.9474V473.262H70.9614V461.796ZM94.1782 484.98C92.9742 483.328 92.3722 481.27 92.3722 478.806C92.3722 476.314 92.9742 474.256 94.1782 472.632C95.3822 471.008 97.1322 470.196 99.4282 470.196C101.668 470.196 103.39 471.022 104.594 472.674C105.826 474.298 106.442 476.342 106.442 478.806C106.442 481.27 105.84 483.328 104.636 484.98C103.432 486.604 101.696 487.416 99.4282 487.416C97.1322 487.416 95.3822 486.604 94.1782 484.98ZM90.9442 473.514C90.3282 475.138 90.0202 476.902 90.0202 478.806C90.0202 480.71 90.3282 482.474 90.9442 484.098C91.5882 485.722 92.5542 487.038 93.8422 488.046C95.1582 489.054 96.7962 489.558 98.7562 489.558C100.604 489.558 102.13 489.138 103.334 488.298C104.566 487.43 105.49 486.282 106.106 484.854C106.302 484.462 106.414 484.21 106.442 484.098H106.946C106.806 484.714 106.68 485.414 106.568 486.198C106.484 486.982 106.442 487.752 106.442 488.508V489.054H108.794V459.654H106.442V468.684C106.442 470.364 106.61 471.974 106.946 473.514H106.442C105.826 471.862 104.888 470.546 103.628 469.566C102.368 468.558 100.758 468.054 98.7982 468.054C96.8382 468.054 95.2002 468.558 93.8842 469.566C92.5682 470.574 91.5882 471.89 90.9442 473.514ZM116.934 469.734C116.934 469.398 116.808 469.118 116.556 468.894C116.332 468.67 116.052 468.558 115.716 468.558H112.272V470.7H113.952C114.12 470.7 114.26 470.77 114.372 470.91C114.512 471.022 114.582 471.162 114.582 471.33V489.054H116.934V469.734ZM115.716 462.258C115.296 462.258 114.932 462.118 114.624 461.838C114.344 461.53 114.204 461.18 114.204 460.788C114.204 460.396 114.344 460.06 114.624 459.78C114.932 459.472 115.296 459.318 115.716 459.318C116.108 459.318 116.444 459.472 116.724 459.78C117.032 460.06 117.186 460.396 117.186 460.788C117.186 461.18 117.032 461.53 116.724 461.838C116.444 462.118 116.108 462.258 115.716 462.258ZM122.788 483.006C122.788 484.098 123.04 485.106 123.544 486.03C124.076 486.954 124.79 487.696 125.686 488.256C126.61 488.788 127.66 489.054 128.836 489.054H130.642V486.912H129.004C127.94 486.912 127.03 486.534 126.274 485.778C125.518 484.994 125.14 484.07 125.14 483.006V470.7H130.642V468.558H125.14V459.654H122.788V468.558H120.184V470.7H122.788V483.006ZM137.032 469.734C137.032 469.398 136.906 469.118 136.654 468.894C136.43 468.67 136.15 468.558 135.814 468.558H132.37V470.7H134.05C134.218 470.7 134.358 470.77 134.47 470.91C134.61 471.022 134.68 471.162 134.68 471.33V489.054H137.032V469.734ZM135.814 462.258C135.394 462.258 135.03 462.118 134.722 461.838C134.442 461.53 134.302 461.18 134.302 460.788C134.302 460.396 134.442 460.06 134.722 459.78C135.03 459.472 135.394 459.318 135.814 459.318C136.206 459.318 136.542 459.472 136.822 459.78C137.13 460.06 137.284 460.396 137.284 460.788C137.284 461.18 137.13 461.53 136.822 461.838C136.542 462.118 136.206 462.258 135.814 462.258ZM154.688 486.366C153.624 487.234 152.266 487.668 150.614 487.668C148.962 487.668 147.59 487.234 146.498 486.366C145.434 485.498 144.65 484.392 144.146 483.048C143.67 481.704 143.432 480.29 143.432 478.806C143.432 477.322 143.67 475.908 144.146 474.564C144.65 473.22 145.434 472.114 146.498 471.246C147.59 470.378 148.962 469.944 150.614 469.944C152.266 469.944 153.624 470.378 154.688 471.246C155.752 472.114 156.536 473.22 157.04 474.564C157.544 475.908 157.796 477.322 157.796 478.806C157.796 480.29 157.544 481.704 157.04 483.048C156.536 484.392 155.752 485.498 154.688 486.366ZM155.864 469.65C154.492 468.586 152.742 468.054 150.614 468.054C148.458 468.054 146.68 468.586 145.28 469.65C143.908 470.686 142.9 472.03 142.256 473.682C141.612 475.306 141.29 477.014 141.29 478.806C141.29 480.598 141.612 482.32 142.256 483.972C142.9 485.596 143.908 486.94 145.28 488.004C146.68 489.04 148.458 489.558 150.614 489.558C152.742 489.558 154.492 489.04 155.864 488.004C157.264 486.94 158.286 485.596 158.93 483.972C159.602 482.32 159.938 480.598 159.938 478.806C159.938 477.014 159.602 475.306 158.93 473.682C158.286 472.03 157.264 470.686 155.864 469.65ZM182.178 477.252C182.178 475.824 181.968 474.494 181.548 473.262C181.156 472.03 180.526 470.966 179.658 470.07C178.79 469.174 177.712 468.572 176.424 468.264C174.8 467.872 173.288 467.928 171.888 468.432C170.516 468.936 169.368 469.79 168.444 470.994C167.52 472.17 166.876 473.57 166.512 475.194H166.05C166.19 474.494 166.316 473.724 166.428 472.884C166.568 472.044 166.638 471.26 166.638 470.532V468.558H164.286V489.054H166.638V482.208C166.638 480.472 166.764 478.806 167.016 477.21C167.268 475.586 167.758 474.186 168.486 473.01C169.242 471.834 170.18 470.98 171.3 470.448C172.448 469.916 173.722 469.804 175.122 470.112C176.802 470.448 178.006 471.26 178.734 472.548C179.462 473.836 179.826 475.544 179.826 477.672V489.054H182.178V477.252Z" fill="white"/>
<rect x="1.5" y="393.424" width="777" height="115.924" rx="19.5" stroke="white" stroke-width="3"/>
<path d="M53.7981 425.735C53.7981 437.418 44.3278 446.888 32.6456 446.888C20.9634 446.888 11.4932 437.418 11.4932 425.735C11.4932 414.053 20.9634 404.583 32.6456 404.583C44.3278 404.583 53.7981 414.053 53.7981 425.735Z" stroke="white" stroke-width="2"/>
<path d="M45.8479 425.735C45.8479 431.691 44.2987 437.035 41.8468 440.86C39.3879 444.696 36.1119 446.888 32.6476 446.888C29.1832 446.888 25.9072 444.696 23.4483 440.86C20.9965 437.035 19.4473 431.691 19.4473 425.735C19.4473 419.78 20.9965 414.436 23.4483 410.611C25.9072 406.775 29.1832 404.583 32.6476 404.583C36.1119 404.583 39.3879 406.775 41.8468 410.611C44.2987 414.436 45.8479 419.78 45.8479 425.735Z" stroke="white" stroke-width="2"/>
<path d="M51.3909 413.996L52.4189 415.889C37.4627 416.737 28.3582 416.926 13.6048 415.889L14.2808 413.996C29.067 414.745 36.1852 414.85 51.3909 413.996Z" fill="white"/>
<path d="M51.3909 413.996L52.4189 415.889C37.4627 416.737 28.3582 416.926 13.6048 415.889L14.2808 413.996C29.067 414.745 36.1852 414.85 51.3909 413.996Z" fill="white"/>
<path d="M51.3909 413.996L52.4189 415.889C37.4627 416.737 28.3582 416.926 13.6048 415.889L14.2808 413.996C29.067 414.745 36.1852 414.85 51.3909 413.996Z" fill="white"/>
<path d="M14.6325 437.236L13.6045 435.343C28.5607 434.495 37.6652 434.306 52.4186 435.343L51.7426 437.236C36.9564 436.487 29.8383 436.381 14.6325 437.236Z" fill="white"/>
<path d="M14.6325 437.236L13.6045 435.343C28.5607 434.495 37.6652 434.306 52.4186 435.343L51.7426 437.236C36.9564 436.487 29.8383 436.381 14.6325 437.236Z" fill="white"/>
<path d="M14.6325 437.236L13.6045 435.343C28.5607 434.495 37.6652 434.306 52.4186 435.343L51.7426 437.236C36.9564 436.487 29.8383 436.381 14.6325 437.236Z" fill="white"/>
<rect x="33.9717" y="447.13" width="2.27205" height="43.5476" transform="rotate(-180 33.9717 447.13)" fill="white"/>
<rect x="11.0615" y="426.493" width="2.27205" height="43.5476" transform="rotate(-90 11.0615 426.493)" fill="white"/>
<path fill-rule="evenodd" clip-rule="evenodd" d="M52.4133 491.703L34.8126 461.217C34.4277 460.551 33.4654 460.551 33.0805 461.217L15.4798 491.703C15.0949 492.369 15.576 493.203 16.3458 493.203H51.5473C52.3171 493.203 52.7982 492.369 52.4133 491.703ZM37.4106 459.717C35.871 457.051 32.022 457.051 30.4824 459.717L12.8817 490.203C11.3421 492.869 13.2666 496.203 16.3458 496.203H51.5473C54.6265 496.203 56.551 492.869 55.0114 490.203L37.4106 459.717ZM32.2041 467.225C32.2041 466.262 32.9845 465.482 33.9471 465.482C34.9098 465.482 35.6901 466.262 35.6901 467.225V481.604C35.6901 482.567 34.9098 483.347 33.9471 483.347C32.9845 483.347 32.2041 482.567 32.2041 481.604V467.225ZM33.9471 486.834C32.9845 486.834 32.2041 487.614 32.2041 488.577V489.012C32.2041 489.975 32.9845 490.755 33.9471 490.755C34.9098 490.755 35.6901 489.975 35.6901 489.012V488.577C35.6901 487.614 34.9098 486.834 33.9471 486.834Z" fill="white"/>
<path fill-rule="evenodd" clip-rule="evenodd" d="M770.609 507.349C767.326 509.531 763.394 510.814 759.164 510.847L676.232 510.847V507.349L770.609 507.349ZM778.349 498.022C777.44 500.171 776.183 502.138 774.649 503.851L676.232 503.851V498.022H682.388V499.52C682.388 500.624 683.284 501.52 684.388 501.52H695.377C696.481 501.52 697.377 500.624 697.377 499.52V498.022L778.349 498.022ZM779.87 492.192C779.782 492.984 779.65 493.762 779.477 494.524L697.377 494.524V492.192L779.87 492.192ZM779.477 408.247C779.65 409.009 779.782 409.787 779.87 410.579L724.2 410.579L722.685 409.063C721.904 408.282 720.637 408.282 719.856 409.063L718.341 410.579L697.377 410.579V408.247L779.477 408.247ZM775.619 400.085C776.969 401.83 778.051 403.794 778.801 405.914L697.377 405.914V400.085L775.619 400.085ZM773.521 397.754C773.912 398.128 774.288 398.516 774.649 398.919L697.195 398.919C696.886 398.245 696.212 397.773 695.426 397.754L773.521 397.754ZM759.1 391.924C764.061 391.947 768.615 393.69 772.197 396.587L676.232 396.588V391.924L759.1 391.924ZM676.232 400.085V405.914H682.388V400.085H676.232ZM676.232 408.247H682.388V410.579H676.232V408.247ZM676.232 416.408H682.388V418.74H676.232V416.408ZM697.377 416.408V418.74L710.179 418.74L712.511 416.408L697.377 416.408ZM676.232 423.404H682.388V424.569H676.232V423.404ZM697.377 423.404V424.569H704.35L705.516 423.404L697.377 423.404ZM676.584 425.735H682.388V426.711C682.388 426.776 682.385 426.839 682.38 426.901H677.75L676.584 425.735ZM697.377 426.714C697.377 426.778 697.379 426.84 697.385 426.901H702.018L703.184 425.735H697.377V426.714ZM678.916 428.067H681.865C681.146 428.838 679.846 428.997 678.974 428.125L678.916 428.067ZM710.949 440.892C711.168 441.432 711.615 441.879 712.217 442.058L779.999 442.058V440.892L710.949 440.892ZM741.767 446.721V451.385H779.999V446.721H741.767ZM712.807 457.13C712.597 457.13 712.4 457.16 712.217 457.215L779.999 457.215V456.049H741.544C741.211 456.691 740.54 457.13 739.767 457.13H712.807ZM676.232 474.703V473.884L678.974 471.142C680.234 469.882 682.388 470.775 682.388 472.557V474.703H676.232ZM676.232 477.035H682.388V478.201H676.232V477.035ZM697.377 477.035V478.201H707.853L706.687 477.035H697.377ZM676.232 481.699H682.388V484.031V485.197H676.232V484.031V481.699ZM676.232 486.362H682.388V488.694H676.232V486.362ZM697.377 486.362V488.694H718.346L716.014 486.362H697.377ZM676.232 492.192H682.388V494.524H676.232V492.192ZM779.999 488.694L724.201 488.694L726.532 486.362L779.999 486.362V488.694ZM779.999 485.197L727.698 485.197L728.863 484.031H779.999V485.197ZM779.999 484.031H728.864L730.458 482.437C730.673 482.221 730.829 481.969 730.926 481.699H779.999V484.031ZM713.683 484.031L711.351 481.699H697.377V484.031V485.197H714.849L713.683 484.031ZM779.999 478.201H729.05L727.884 477.035H779.999V478.201ZM779.999 474.703L725.552 474.703L717.391 466.542H779.999V474.703ZM700.791 471.139L704.355 474.703H697.377V472.553C697.377 470.772 699.531 469.879 700.791 471.139ZM722.049 428.067L712.722 437.394L779.999 437.394V428.067L722.049 428.067ZM700.791 428.128L700.852 428.067H697.897C698.615 428.841 699.918 429.002 700.791 428.128ZM779.999 426.901L723.215 426.901L724.381 425.735L779.999 425.735V426.901ZM779.999 424.569L725.547 424.569L726.713 423.404L779.999 423.404V424.569ZM779.999 418.74L730.979 418.74C731.147 418.079 730.972 417.35 730.455 416.833L730.03 416.408L779.999 416.408V418.74ZM676.232 397.754L684.338 397.754C683.553 397.773 682.879 398.245 682.57 398.919L676.232 398.919V397.754Z" fill="white"/>
<defs>
<linearGradient id="paint0_linear_96_698" x1="746" y1="364.5" x2="766.5" y2="304.5" gradientUnits="userSpaceOnUse">
<stop stop-color="white"/>
<stop offset="0.893995" stop-color="white"/>
<stop offset="1" stop-color="white" stop-opacity="0"/>
</linearGradient>
</defs>
</svg>
